<svg width="132" height="54" viewBox="0 0 132 54" fill="none" xmlns="http://www.w3.org/2000/svg">
<path d="M62.9013 12.9778C80.2186 9.53456 96.1997 8.02236 108.033 8.35423C113.954 8.52027 118.808 9.14693 122.265 10.2101C123.994 10.7419 125.348 11.3755 126.307 12.0948C127.263 12.8116 127.8 13.5928 127.966 14.4263C128.132 15.2599 127.934 16.1874 127.325 17.2153C126.714 18.2468 125.705 19.3493 124.311 20.5018C121.524 22.8065 117.279 25.2434 111.872 27.6618C101.066 32.4952 85.7216 37.2115 68.4044 40.6548C51.0872 44.098 35.106 45.6102 23.2725 45.2783C17.3517 45.1123 12.4972 44.4847 9.04048 43.4215C7.31176 42.8897 5.95805 42.257 4.99884 41.5377C4.04298 40.8209 3.50526 40.0398 3.33945 39.2062C3.17371 38.3727 3.37185 37.4452 3.98073 36.4173C4.59182 35.3858 5.60033 34.2824 6.99415 33.1298C9.78122 30.8251 14.0267 28.3891 19.4335 25.9707C30.24 21.1373 45.584 16.421 62.9013 12.9778Z" stroke="#AA8636"/>
<mask id="path-2-outside-1_229_2" maskUnits="userSpaceOnUse" x="17.4248" y="14.9624" width="99" height="23" fill="black">
<rect fill="white" x="17.4248" y="14.9624" width="99" height="23"/>
<path d="M19.1818 35.9624L27.6058 17.0624H31.9258L40.3768 35.9624H35.7868L28.8748 19.2764H30.6028L23.6638 35.9624H19.1818ZM23.3938 31.9124L24.5548 28.5914H34.2748L35.4628 31.9124H23.3938ZM48.5477 36.2864C47.0357 36.2864 45.5867 36.0884 44.2007 35.6924C42.8147 35.2784 41.6987 34.7474 40.8527 34.0994L42.3377 30.8054C43.1477 31.3814 44.1017 31.8584 45.1997 32.2364C46.3157 32.5964 47.4407 32.7764 48.5747 32.7764C49.4387 32.7764 50.1317 32.6954 50.6537 32.5334C51.1937 32.3534 51.5897 32.1104 51.8417 31.8044C52.0937 31.4984 52.2197 31.1474 52.2197 30.7514C52.2197 30.2474 52.0217 29.8514 51.6257 29.5634C51.2297 29.2574 50.7077 29.0144 50.0597 28.8344C49.4117 28.6364 48.6917 28.4564 47.8997 28.2944C47.1257 28.1144 46.3427 27.8984 45.5507 27.6464C44.7767 27.3944 44.0657 27.0704 43.4177 26.6744C42.7697 26.2784 42.2387 25.7564 41.8247 25.1084C41.4287 24.4604 41.2307 23.6324 41.2307 22.6244C41.2307 21.5444 41.5187 20.5634 42.0947 19.6814C42.6887 18.7814 43.5707 18.0704 44.7407 17.5484C45.9287 17.0084 47.4137 16.7384 49.1957 16.7384C50.3837 16.7384 51.5537 16.8824 52.7057 17.1704C53.8577 17.4404 54.8747 17.8544 55.7567 18.4124L54.4067 21.7334C53.5247 21.2294 52.6427 20.8604 51.7607 20.6264C50.8787 20.3744 50.0147 20.2484 49.1687 20.2484C48.3227 20.2484 47.6297 20.3474 47.0897 20.5454C46.5497 20.7434 46.1627 21.0044 45.9287 21.3284C45.6947 21.6344 45.5777 21.9944 45.5777 22.4084C45.5777 22.8944 45.7757 23.2904 46.1717 23.5964C46.5677 23.8844 47.0897 24.1184 47.7377 24.2984C48.3857 24.4784 49.0967 24.6584 49.8707 24.8384C50.6627 25.0184 51.4457 25.2254 52.2197 25.4594C53.0117 25.6934 53.7317 26.0084 54.3797 26.4044C55.0277 26.8004 55.5497 27.3224 55.9457 27.9704C56.3597 28.6184 56.5667 29.4374 56.5667 30.4274C56.5667 31.4894 56.2697 32.4614 55.6757 33.3434C55.0817 34.2254 54.1907 34.9364 53.0027 35.4764C51.8327 36.0164 50.3477 36.2864 48.5477 36.2864ZM63.2068 35.9624V20.6264H57.1588V17.0624H73.6288V20.6264H67.5808V35.9624H63.2068ZM75.9822 35.9624V17.0624H84.1632C85.8552 17.0624 87.3132 17.3414 88.5372 17.8994C89.7612 18.4394 90.7062 19.2224 91.3722 20.2484C92.0382 21.2744 92.3712 22.4984 92.3712 23.9204C92.3712 25.3244 92.0382 26.5394 91.3722 27.5654C90.7062 28.5734 89.7612 29.3474 88.5372 29.8874C87.3132 30.4274 85.8552 30.6974 84.1632 30.6974H78.4122L80.3562 28.7804V35.9624H75.9822ZM87.9972 35.9624L83.2722 29.1044H87.9432L92.7222 35.9624H87.9972ZM80.3562 29.2664L78.4122 27.2144H83.9202C85.2702 27.2144 86.2782 26.9264 86.9442 26.3504C87.6102 25.7564 87.9432 24.9464 87.9432 23.9204C87.9432 22.8764 87.6102 22.0664 86.9442 21.4904C86.2782 20.9144 85.2702 20.6264 83.9202 20.6264H78.4122L80.3562 18.5474V29.2664ZM93.3527 35.9624L101.777 17.0624H106.097L114.548 35.9624H109.958L103.046 19.2764H104.774L97.8347 35.9624H93.3527ZM97.5647 31.9124L98.7257 28.5914H108.446L109.634 31.9124H97.5647Z"/>
</mask>
<path d="M19.1818 35.9624L27.6058 17.0624H31.9258L40.3768 35.9624H35.7868L28.8748 19.2764H30.6028L23.6638 35.9624H19.1818ZM23.3938 31.9124L24.5548 28.5914H34.2748L35.4628 31.9124H23.3938ZM48.5477 36.2864C47.0357 36.2864 45.5867 36.0884 44.2007 35.6924C42.8147 35.2784 41.6987 34.7474 40.8527 34.0994L42.3377 30.8054C43.1477 31.3814 44.1017 31.8584 45.1997 32.2364C46.3157 32.5964 47.4407 32.7764 48.5747 32.7764C49.4387 32.7764 50.1317 32.6954 50.6537 32.5334C51.1937 32.3534 51.5897 32.1104 51.8417 31.8044C52.0937 31.4984 52.2197 31.1474 52.2197 30.7514C52.2197 30.2474 52.0217 29.8514 51.6257 29.5634C51.2297 29.2574 50.7077 29.0144 50.0597 28.8344C49.4117 28.6364 48.6917 28.4564 47.8997 28.2944C47.1257 28.1144 46.3427 27.8984 45.5507 27.6464C44.7767 27.3944 44.0657 27.0704 43.4177 26.6744C42.7697 26.2784 42.2387 25.7564 41.8247 25.1084C41.4287 24.4604 41.2307 23.6324 41.2307 22.6244C41.2307 21.5444 41.5187 20.5634 42.0947 19.6814C42.6887 18.7814 43.5707 18.0704 44.7407 17.5484C45.9287 17.0084 47.4137 16.7384 49.1957 16.7384C50.3837 16.7384 51.5537 16.8824 52.7057 17.1704C53.8577 17.4404 54.8747 17.8544 55.7567 18.4124L54.4067 21.7334C53.5247 21.2294 52.6427 20.8604 51.7607 20.6264C50.8787 20.3744 50.0147 20.2484 49.1687 20.2484C48.3227 20.2484 47.6297 20.3474 47.0897 20.5454C46.5497 20.7434 46.1627 21.0044 45.9287 21.3284C45.6947 21.6344 45.5777 21.9944 45.5777 22.4084C45.5777 22.8944 45.7757 23.2904 46.1717 23.5964C46.5677 23.8844 47.0897 24.1184 47.7377 24.2984C48.3857 24.4784 49.0967 24.6584 49.8707 24.8384C50.6627 25.0184 51.4457 25.2254 52.2197 25.4594C53.0117 25.6934 53.7317 26.0084 54.3797 26.4044C55.0277 26.8004 55.5497 27.3224 55.9457 27.9704C56.3597 28.6184 56.5667 29.4374 56.5667 30.4274C56.5667 31.4894 56.2697 32.4614 55.6757 33.3434C55.0817 34.2254 54.1907 34.9364 53.0027 35.4764C51.8327 36.0164 50.3477 36.2864 48.5477 36.2864ZM63.2068 35.9624V20.6264H57.1588V17.0624H73.6288V20.6264H67.5808V35.9624H63.2068ZM75.9822 35.9624V17.0624H84.1632C85.8552 17.0624 87.3132 17.3414 88.5372 17.8994C89.7612 18.4394 90.7062 19.2224 91.3722 20.2484C92.0382 21.2744 92.3712 22.4984 92.3712 23.9204C92.3712 25.3244 92.0382 26.5394 91.3722 27.5654C90.7062 28.5734 89.7612 29.3474 88.5372 29.8874C87.3132 30.4274 85.8552 30.6974 84.1632 30.6974H78.4122L80.3562 28.7804V35.9624H75.9822ZM87.9972 35.9624L83.2722 29.1044H87.9432L92.7222 35.9624H87.9972ZM80.3562 29.2664L78.4122 27.2144H83.9202C85.2702 27.2144 86.2782 26.9264 86.9442 26.3504C87.6102 25.7564 87.9432 24.9464 87.9432 23.9204C87.9432 22.8764 87.6102 22.0664 86.9442 21.4904C86.2782 20.9144 85.2702 20.6264 83.9202 20.6264H78.4122L80.3562 18.5474V29.2664ZM93.3527 35.9624L101.777 17.0624H106.097L114.548 35.9624H109.958L103.046 19.2764H104.774L97.8347 35.9624H93.3527ZM97.5647 31.9124L98.7257 28.5914H108.446L109.634 31.9124H97.5647Z" fill="#F2F2F2"/>
<path d="M19.1818 35.9624L18.2684 35.5553L17.6413 36.9624H19.1818V35.9624ZM27.6058 17.0624V16.0624H26.9567L26.6924 16.6553L27.6058 17.0624ZM31.9258 17.0624L32.8387 16.6542L32.5741 16.0624H31.9258V17.0624ZM40.3768 35.9624V36.9624H41.9194L41.2897 35.5542L40.3768 35.9624ZM35.7868 35.9624L34.8629 36.3451L35.1186 36.9624H35.7868V35.9624ZM28.8748 19.2764V18.2764H27.3782L27.9509 19.6591L28.8748 19.2764ZM30.6028 19.2764L31.5261 19.6604L32.1017 18.2764H30.6028V19.2764ZM23.6638 35.9624V36.9624H24.331L24.5871 36.3464L23.6638 35.9624ZM23.3938 31.9124L22.4498 31.5824L21.9849 32.9124H23.3938V31.9124ZM24.5548 28.5914V27.5914H23.8451L23.6108 28.2614L24.5548 28.5914ZM34.2748 28.5914L35.2164 28.2546L34.9791 27.5914H34.2748V28.5914ZM35.4628 31.9124V32.9124H36.8826L36.4044 31.5756L35.4628 31.9124ZM19.1818 35.9624L20.0952 36.3695L28.5192 17.4695L27.6058 17.0624L26.6924 16.6553L18.2684 35.5553L19.1818 35.9624ZM27.6058 17.0624V18.0624H31.9258V17.0624V16.0624H27.6058V17.0624ZM31.9258 17.0624L31.0129 17.4706L39.4639 36.3706L40.3768 35.9624L41.2897 35.5542L32.8387 16.6542L31.9258 17.0624ZM40.3768 35.9624V34.9624H35.7868V35.9624V36.9624H40.3768V35.9624ZM35.7868 35.9624L36.7107 35.5797L29.7987 18.8937L28.8748 19.2764L27.9509 19.6591L34.8629 36.3451L35.7868 35.9624ZM28.8748 19.2764V20.2764H30.6028V19.2764V18.2764H28.8748V19.2764ZM30.6028 19.2764L29.6795 18.8924L22.7405 35.5784L23.6638 35.9624L24.5871 36.3464L31.5261 19.6604L30.6028 19.2764ZM23.6638 35.9624V34.9624H19.1818V35.9624V36.9624H23.6638V35.9624ZM23.3938 31.9124L24.3378 32.2424L25.4988 28.9214L24.5548 28.5914L23.6108 28.2614L22.4498 31.5824L23.3938 31.9124ZM24.5548 28.5914V29.5914H34.2748V28.5914V27.5914H24.5548V28.5914ZM34.2748 28.5914L33.3332 28.9282L34.5212 32.2492L35.4628 31.9124L36.4044 31.5756L35.2164 28.2546L34.2748 28.5914ZM35.4628 31.9124V30.9124H23.3938V31.9124V32.9124H35.4628V31.9124ZM44.2007 35.6924L43.9145 36.6506L43.926 36.6539L44.2007 35.6924ZM40.8527 34.0994L39.941 33.6884L39.6152 34.4112L40.2446 34.8933L40.8527 34.0994ZM42.3377 30.8054L42.9172 29.9904L41.9259 29.2855L41.426 30.3944L42.3377 30.8054ZM45.1997 32.2364L44.8742 33.1819L44.8834 33.1851L44.8927 33.1881L45.1997 32.2364ZM50.6537 32.5334L50.9501 33.4885L50.96 33.4854L50.9699 33.4821L50.6537 32.5334ZM51.8417 31.8044L51.0697 31.1687L51.8417 31.8044ZM51.6257 29.5634L51.0142 30.3547L51.0257 30.3636L51.0375 30.3721L51.6257 29.5634ZM50.0597 28.8344L49.7675 29.7908L49.7797 29.7945L49.792 29.7979L50.0597 28.8344ZM47.8997 28.2944L47.6732 29.2684L47.6862 29.2714L47.6993 29.2741L47.8997 28.2944ZM45.5507 27.6464L45.2411 28.5973L45.2475 28.5993L45.5507 27.6464ZM43.4177 26.6744L42.8962 27.5277H42.8962L43.4177 26.6744ZM41.8247 25.1084L40.9714 25.6299L40.9766 25.6384L40.982 25.6468L41.8247 25.1084ZM42.0947 19.6814L41.2601 19.1306L41.2574 19.1346L42.0947 19.6814ZM44.7407 17.5484L45.1481 18.4617L45.1545 18.4588L44.7407 17.5484ZM52.7057 17.1704L52.4631 18.1405L52.4703 18.1423L52.4775 18.144L52.7057 17.1704ZM55.7567 18.4124L56.6831 18.789L56.9979 18.0144L56.2913 17.5673L55.7567 18.4124ZM54.4067 21.7334L53.9105 22.6016L54.9027 23.1686L55.3331 22.11L54.4067 21.7334ZM51.7607 20.6264L51.486 21.5879L51.4951 21.5905L51.5042 21.593L51.7607 20.6264ZM47.0897 20.5454L46.7454 19.6065L46.7454 19.6065L47.0897 20.5454ZM45.9287 21.3284L46.723 21.9359L46.7313 21.925L46.7394 21.9139L45.9287 21.3284ZM46.1717 23.5964L45.5602 24.3877L45.5717 24.3966L45.5835 24.4051L46.1717 23.5964ZM47.7377 24.2984L47.47 25.2619H47.47L47.7377 24.2984ZM49.8707 24.8384L49.6442 25.8124L49.6491 25.8135L49.8707 24.8384ZM52.2197 25.4594L51.9303 26.4166L51.9363 26.4184L52.2197 25.4594ZM54.3797 26.4044L54.9011 25.5511L54.3797 26.4044ZM55.9457 27.9704L55.0924 28.4919L55.0976 28.5004L55.103 28.5088L55.9457 27.9704ZM55.6757 33.3434L56.5051 33.902L55.6757 33.3434ZM53.0027 35.4764L52.5889 34.566L52.5836 34.5684L53.0027 35.4764ZM48.5477 36.2864V35.2864C47.124 35.2864 45.7678 35.1001 44.4754 34.7309L44.2007 35.6924L43.926 36.6539C45.4056 37.0767 46.9473 37.2864 48.5477 37.2864V36.2864ZM44.2007 35.6924L44.4869 34.7342C43.1784 34.3434 42.1826 33.8585 41.4608 33.3055L40.8527 34.0994L40.2446 34.8933C41.2147 35.6363 42.451 36.2134 43.9145 36.6506L44.2007 35.6924ZM40.8527 34.0994L41.7643 34.5104L43.2493 31.2164L42.3377 30.8054L41.426 30.3944L39.941 33.6884L40.8527 34.0994ZM42.3377 30.8054L41.7582 31.6204C42.658 32.2602 43.7005 32.7779 44.8742 33.1819L45.1997 32.2364L45.5252 31.2909C44.5029 30.9389 43.6374 30.5026 42.9172 29.9904L42.3377 30.8054ZM45.1997 32.2364L44.8927 33.1881C46.1045 33.579 47.3329 33.7764 48.5747 33.7764V32.7764V31.7764C47.5484 31.7764 46.5269 31.6138 45.5067 31.2847L45.1997 32.2364ZM48.5747 32.7764V33.7764C49.488 33.7764 50.2931 33.6924 50.9501 33.4885L50.6537 32.5334L50.3573 31.5783C49.9702 31.6985 49.3893 31.7764 48.5747 31.7764V32.7764ZM50.6537 32.5334L50.9699 33.4821C51.6145 33.2672 52.2009 32.9413 52.6136 32.4401L51.8417 31.8044L51.0697 31.1687C50.9785 31.2795 50.7729 31.4396 50.3375 31.5847L50.6537 32.5334ZM51.8417 31.8044L52.6136 32.4401C53.0129 31.9553 53.2197 31.3796 53.2197 30.7514H52.2197H51.2197C51.2197 30.9152 51.1745 31.0415 51.0697 31.1687L51.8417 31.8044ZM52.2197 30.7514H53.2197C53.2197 29.9385 52.8774 29.2373 52.2139 28.7547L51.6257 29.5634L51.0375 30.3721C51.1659 30.4655 51.2197 30.5563 51.2197 30.7514H52.2197ZM51.6257 29.5634L52.2371 28.7721C51.7101 28.3649 51.0596 28.0743 50.3273 27.8709L50.0597 28.8344L49.792 29.7979C50.3557 29.9545 50.7492 30.1499 51.0142 30.3547L51.6257 29.5634ZM50.0597 28.8344L50.3519 27.8781C49.6686 27.6693 48.9173 27.4819 48.1001 27.3147L47.8997 28.2944L47.6993 29.2741C48.466 29.431 49.1548 29.6035 49.7675 29.7908L50.0597 28.8344ZM47.8997 28.2944L48.1262 27.3204C47.3792 27.1467 46.6218 26.9378 45.8539 26.6935L45.5507 27.6464L45.2475 28.5993C46.0636 28.859 46.8722 29.0821 47.6732 29.2684L47.8997 28.2944ZM45.5507 27.6464L45.8603 26.6955C45.1552 26.466 44.516 26.1736 43.9391 25.8211L43.4177 26.6744L42.8962 27.5277C43.6154 27.9672 44.3982 28.3228 45.2411 28.5973L45.5507 27.6464ZM43.4177 26.6744L43.9391 25.8211C43.4224 25.5053 43.0007 25.0917 42.6674 24.57L41.8247 25.1084L40.982 25.6468C41.4767 26.4211 42.1169 27.0515 42.8962 27.5277L43.4177 26.6744ZM41.8247 25.1084L42.678 24.587C42.4045 24.1394 42.2307 23.507 42.2307 22.6244H41.2307H40.2307C40.2307 23.7578 40.4529 24.7814 40.9714 25.6299L41.8247 25.1084ZM41.2307 22.6244H42.2307C42.2307 21.7334 42.4649 20.9433 42.9319 20.2282L42.0947 19.6814L41.2574 19.1346C40.5724 20.1835 40.2307 21.3554 40.2307 22.6244H41.2307ZM42.0947 19.6814L42.9293 20.2322C43.4 19.5191 44.119 18.9208 45.1481 18.4616L44.7407 17.5484L44.3332 16.6352C43.0224 17.22 41.9774 18.0437 41.2601 19.1306L42.0947 19.6814ZM44.7407 17.5484L45.1545 18.4588C46.1742 17.9953 47.5073 17.7384 49.1957 17.7384V16.7384V15.7384C47.3201 15.7384 45.6832 16.0215 44.3269 16.638L44.7407 17.5484ZM49.1957 16.7384V17.7384C50.302 17.7384 51.3905 17.8724 52.4631 18.1405L52.7057 17.1704L52.9482 16.2003C51.7169 15.8924 50.4654 15.7384 49.1957 15.7384V16.7384ZM52.7057 17.1704L52.4775 18.144C53.5352 18.3919 54.446 18.7665 55.222 19.2575L55.7567 18.4124L56.2913 17.5673C55.3034 16.9423 54.1801 16.4889 52.9339 16.1968L52.7057 17.1704ZM55.7567 18.4124L54.8303 18.0358L53.4803 21.3568L54.4067 21.7334L55.3331 22.11L56.6831 18.789L55.7567 18.4124ZM54.4067 21.7334L54.9028 20.8652C53.9539 20.3229 52.9918 19.9184 52.0171 19.6598L51.7607 20.6264L51.5042 21.593C52.2936 21.8024 53.0955 22.1359 53.9105 22.6016L54.4067 21.7334ZM51.7607 20.6264L52.0354 19.6649C51.0715 19.3895 50.1151 19.2484 49.1687 19.2484V20.2484V21.2484C49.9143 21.2484 50.6858 21.3593 51.486 21.5879L51.7607 20.6264ZM49.1687 20.2484V19.2484C48.2554 19.2484 47.4346 19.3538 46.7454 19.6065L47.0897 20.5454L47.4339 21.4843C47.8248 21.341 48.39 21.2484 49.1687 21.2484V20.2484ZM47.0897 20.5454L46.7454 19.6065C46.0967 19.8444 45.5096 20.2007 45.118 20.7429L45.9287 21.3284L46.7394 21.9139C46.8157 21.8081 47.0027 21.6424 47.4339 21.4843L47.0897 20.5454ZM45.9287 21.3284L45.1343 20.721C44.7567 21.2148 44.5777 21.7923 44.5777 22.4084H45.5777H46.5777C46.5777 22.1965 46.6327 22.054 46.723 21.9359L45.9287 21.3284ZM45.5777 22.4084H44.5777C44.5777 23.2147 44.9277 23.8989 45.5602 24.3877L46.1717 23.5964L46.7831 22.8051C46.6237 22.6819 46.5777 22.5741 46.5777 22.4084H45.5777ZM46.1717 23.5964L45.5835 24.4051C46.105 24.7844 46.7469 25.061 47.47 25.2619L47.7377 24.2984L48.0053 23.3349C47.4325 23.1758 47.0304 22.9844 46.7599 22.7877L46.1717 23.5964ZM47.7377 24.2984L47.47 25.2619C48.1338 25.4463 48.8588 25.6298 49.6442 25.8124L49.8707 24.8384L50.0972 23.8644C49.3346 23.687 48.6375 23.5105 48.0053 23.3349L47.7377 24.2984ZM49.8707 24.8384L49.6491 25.8135C50.4184 25.9884 51.1788 26.1894 51.9303 26.4166L52.2197 25.4594L52.5091 24.5022C51.7126 24.2614 50.907 24.0484 50.0923 23.8633L49.8707 24.8384ZM52.2197 25.4594L51.9363 26.4184C52.6519 26.6298 53.2908 26.9109 53.8582 27.2577L54.3797 26.4044L54.9011 25.5511C54.1725 25.1059 53.3714 24.757 52.503 24.5004L52.2197 25.4594ZM54.3797 26.4044L53.8582 27.2577C54.3709 27.571 54.7791 27.9792 55.0924 28.4919L55.9457 27.9704L56.799 27.449C56.3202 26.6656 55.6845 26.0298 54.9011 25.5511L54.3797 26.4044ZM55.9457 27.9704L55.103 28.5088C55.3885 28.9558 55.5667 29.574 55.5667 30.4274H56.5667H57.5667C57.5667 29.3008 57.3308 28.281 56.7884 27.432L55.9457 27.9704ZM56.5667 30.4274H55.5667C55.5667 31.2901 55.3292 32.0677 54.8462 32.7848L55.6757 33.3434L56.5051 33.902C57.2101 32.8552 57.5667 31.6887 57.5667 30.4274H56.5667ZM55.6757 33.3434L54.8462 32.7848C54.3768 33.4819 53.6467 34.0852 52.5889 34.566L53.0027 35.4764L53.4165 36.3868C54.7346 35.7876 55.7866 34.9689 56.5051 33.902L55.6757 33.3434ZM53.0027 35.4764L52.5836 34.5684C51.5863 35.0287 50.2567 35.2864 48.5477 35.2864V36.2864V37.2864C50.4387 37.2864 52.079 37.0041 53.4217 36.3844L53.0027 35.4764ZM63.2068 35.9624H62.2068V36.9624H63.2068V35.9624ZM63.2068 20.6264H64.2068V19.6264H63.2068V20.6264ZM57.1588 20.6264H56.1588V21.6264H57.1588V20.6264ZM57.1588 17.0624V16.0624H56.1588V17.0624H57.1588ZM73.6288 17.0624H74.6288V16.0624H73.6288V17.0624ZM73.6288 20.6264V21.6264H74.6288V20.6264H73.6288ZM67.5808 20.6264V19.6264H66.5808V20.6264H67.5808ZM67.5808 35.9624V36.9624H68.5808V35.9624H67.5808ZM63.2068 35.9624H64.2068V20.6264H63.2068H62.2068V35.9624H63.2068ZM63.2068 20.6264V19.6264H57.1588V20.6264V21.6264H63.2068V20.6264ZM57.1588 20.6264H58.1588V17.0624H57.1588H56.1588V20.6264H57.1588ZM57.1588 17.0624V18.0624H73.6288V17.0624V16.0624H57.1588V17.0624ZM73.6288 17.0624H72.6288V20.6264H73.6288H74.6288V17.0624H73.6288ZM73.6288 20.6264V19.6264H67.5808V20.6264V21.6264H73.6288V20.6264ZM67.5808 20.6264H66.5808V35.9624H67.5808H68.5808V20.6264H67.5808ZM67.5808 35.9624V34.9624H63.2068V35.9624V36.9624H67.5808V35.9624ZM75.9822 35.9624H74.9822V36.9624H75.9822V35.9624ZM75.9822 17.0624V16.0624H74.9822V17.0624H75.9822ZM88.5372 17.8994L88.1224 18.8094L88.1336 18.8143L88.5372 17.8994ZM91.3722 20.2484L90.5334 20.7929V20.7929L91.3722 20.2484ZM91.3722 27.5654L92.2066 28.1167L92.211 28.1099L91.3722 27.5654ZM88.5372 29.8874L88.9408 30.8023L88.5372 29.8874ZM78.4122 30.6974L77.7101 29.9854L75.9739 31.6974H78.4122V30.6974ZM80.3562 28.7804H81.3562V26.3899L79.6541 28.0684L80.3562 28.7804ZM80.3562 35.9624V36.9624H81.3562V35.9624H80.3562ZM87.9972 35.9624L87.1737 36.5298L87.4718 36.9624H87.9972V35.9624ZM83.2722 29.1044V28.1044H81.3689L82.4487 29.6718L83.2722 29.1044ZM87.9432 29.1044L88.7637 28.5327L88.4652 28.1044H87.9432V29.1044ZM92.7222 35.9624V36.9624H94.6379L93.5427 35.3907L92.7222 35.9624ZM80.3562 29.2664L79.6303 29.9541L81.3562 31.776V29.2664H80.3562ZM78.4122 27.2144V26.2144H76.0873L77.6863 27.9021L78.4122 27.2144ZM86.9442 26.3504L87.5984 27.1068L87.6041 27.1018L87.6098 27.0967L86.9442 26.3504ZM78.4122 20.6264L77.6818 19.9434L76.1081 21.6264H78.4122V20.6264ZM80.3562 18.5474H81.3562V16.0138L79.6258 17.8644L80.3562 18.5474ZM75.9822 35.9624H76.9822V17.0624H75.9822H74.9822V35.9624H75.9822ZM75.9822 17.0624V18.0624H84.1632V17.0624V16.0624H75.9822V17.0624ZM84.1632 17.0624V18.0624C85.7478 18.0624 87.0577 18.3239 88.1224 18.8093L88.5372 17.8994L88.952 16.9895C87.5688 16.3589 85.9626 16.0624 84.1632 16.0624V17.0624ZM88.5372 17.8994L88.1336 18.8143C89.1969 19.2835 89.9832 19.9453 90.5334 20.7929L91.3722 20.2484L92.211 19.7039C91.4292 18.4995 90.3255 17.5953 88.9408 16.9845L88.5372 17.8994ZM91.3722 20.2484L90.5334 20.7929C91.078 21.6318 91.3712 22.6596 91.3712 23.9204H92.3712H93.3712C93.3712 22.3372 92.9984 20.917 92.211 19.7039L91.3722 20.2484ZM92.3712 23.9204H91.3712C91.3712 25.1604 91.0793 26.18 90.5334 27.0209L91.3722 27.5654L92.211 28.1099C92.9971 26.8988 93.3712 25.4884 93.3712 23.9204H92.3712ZM91.3722 27.5654L90.5379 27.0141C89.9888 27.8452 89.2016 28.5013 88.1336 28.9725L88.5372 29.8874L88.9408 30.8023C90.3208 30.1935 91.4237 29.3016 92.2066 28.1167L91.3722 27.5654ZM88.5372 29.8874L88.1336 28.9725C87.0657 29.4436 85.7517 29.6974 84.1632 29.6974V30.6974V31.6974C85.9587 31.6974 87.5608 31.4112 88.9408 30.8023L88.5372 29.8874ZM84.1632 30.6974V29.6974H78.4122V30.6974V31.6974H84.1632V30.6974ZM78.4122 30.6974L79.1144 31.4094L81.0584 29.4924L80.3562 28.7804L79.6541 28.0684L77.7101 29.9854L78.4122 30.6974ZM80.3562 28.7804H79.3562V35.9624H80.3562H81.3562V28.7804H80.3562ZM80.3562 35.9624V34.9624H75.9822V35.9624V36.9624H80.3562V35.9624ZM87.9972 35.9624L88.8207 35.395L84.0957 28.537L83.2722 29.1044L82.4487 29.6718L87.1737 36.5298L87.9972 35.9624ZM83.2722 29.1044V30.1044H87.9432V29.1044V28.1044H83.2722V29.1044ZM87.9432 29.1044L87.1228 29.6761L91.9018 36.5341L92.7222 35.9624L93.5427 35.3907L88.7637 28.5327L87.9432 29.1044ZM92.7222 35.9624V34.9624H87.9972V35.9624V36.9624H92.7222V35.9624ZM80.3562 29.2664L81.0822 28.5787L79.1382 26.5267L78.4122 27.2144L77.6863 27.9021L79.6303 29.9541L80.3562 29.2664ZM78.4122 27.2144V28.2144H83.9202V27.2144V26.2144H78.4122V27.2144ZM83.9202 27.2144V28.2144C85.3876 28.2144 86.6754 27.905 87.5984 27.1068L86.9442 26.3504L86.2901 25.594C85.881 25.9478 85.1529 26.2144 83.9202 26.2144V27.2144ZM86.9442 26.3504L87.6098 27.0967C88.5214 26.2837 88.9432 25.1843 88.9432 23.9204H87.9432H86.9432C86.9432 24.7085 86.699 25.2291 86.2786 25.6041L86.9442 26.3504ZM87.9432 23.9204H88.9432C88.9432 22.6453 88.5252 21.5356 87.5984 20.734L86.9442 21.4904L86.2901 22.2468C86.6952 22.5972 86.9432 23.1075 86.9432 23.9204H87.9432ZM86.9442 21.4904L87.5984 20.734C86.6754 19.9358 85.3876 19.6264 83.9202 19.6264V20.6264V21.6264C85.1529 21.6264 85.881 21.893 86.2901 22.2468L86.9442 21.4904ZM83.9202 20.6264V19.6264H78.4122V20.6264V21.6264H83.9202V20.6264ZM78.4122 20.6264L79.1426 21.3094L81.0866 19.2304L80.3562 18.5474L79.6258 17.8644L77.6818 19.9434L78.4122 20.6264ZM80.3562 18.5474H79.3562V29.2664H80.3562H81.3562V18.5474H80.3562ZM93.3527 35.9624L92.4393 35.5553L91.8122 36.9624H93.3527V35.9624ZM101.777 17.0624V16.0624H101.128L100.863 16.6553L101.777 17.0624ZM106.097 17.0624L107.01 16.6542L106.745 16.0624H106.097V17.0624ZM114.548 35.9624V36.9624H116.09L115.461 35.5542L114.548 35.9624ZM109.958 35.9624L109.034 36.3451L109.29 36.9624H109.958V35.9624ZM103.046 19.2764V18.2764H101.549L102.122 19.6591L103.046 19.2764ZM104.774 19.2764L105.697 19.6604L106.273 18.2764H104.774V19.2764ZM97.8347 35.9624V36.9624H98.5019L98.758 36.3464L97.8347 35.9624ZM97.5647 31.9124L96.6207 31.5824L96.1558 32.9124H97.5647V31.9124ZM98.7257 28.5914V27.5914H98.016L97.7817 28.2614L98.7257 28.5914ZM108.446 28.5914L109.387 28.2546L109.15 27.5914H108.446V28.5914ZM109.634 31.9124V32.9124H111.053L110.575 31.5756L109.634 31.9124ZM93.3527 35.9624L94.2661 36.3695L102.69 17.4695L101.777 17.0624L100.863 16.6553L92.4393 35.5553L93.3527 35.9624ZM101.777 17.0624V18.0624H106.097V17.0624V16.0624H101.777V17.0624ZM106.097 17.0624L105.184 17.4706L113.635 36.3706L114.548 35.9624L115.461 35.5542L107.01 16.6542L106.097 17.0624ZM114.548 35.9624V34.9624H109.958V35.9624V36.9624H114.548V35.9624ZM109.958 35.9624L110.882 35.5797L103.97 18.8937L103.046 19.2764L102.122 19.6591L109.034 36.3451L109.958 35.9624ZM103.046 19.2764V20.2764H104.774V19.2764V18.2764H103.046V19.2764ZM104.774 19.2764L103.85 18.8924L96.9114 35.5784L97.8347 35.9624L98.758 36.3464L105.697 19.6604L104.774 19.2764ZM97.8347 35.9624V34.9624H93.3527V35.9624V36.9624H97.8347V35.9624ZM97.5647 31.9124L98.5087 32.2424L99.6697 28.9214L98.7257 28.5914L97.7817 28.2614L96.6207 31.5824L97.5647 31.9124ZM98.7257 28.5914V29.5914H108.446V28.5914V27.5914H98.7257V28.5914ZM108.446 28.5914L107.504 28.9282L108.692 32.2492L109.634 31.9124L110.575 31.5756L109.387 28.2546L108.446 28.5914ZM109.634 31.9124V30.9124H97.5647V31.9124V32.9124H109.634V31.9124Z" fill="#AA8636" mask="url(#path-2-outside-1_229_2)"/>
<path d="M114.511 16.8442H114.789L114.563 17.0073L114.648 17.271L114.425 17.1079L114.2 17.271L114.286 17.0073L114.061 16.8442H114.339L114.425 16.5796L114.511 16.8442Z" fill="#D9AE4B" stroke="#AA8636"/>
<path d="M32.5107 41.8442H32.7891L32.5635 42.0073L32.6484 42.271L32.4248 42.1079L32.2002 42.271L32.2861 42.0073L32.0605 41.8442H32.3389L32.4248 41.5796L32.5107 41.8442Z" fill="#D9AE4B" stroke="#AA8636"/>
<path d="M14.0107 37.8442L14.123 38.1899H14.7637L14.5391 38.353L14.2451 38.5669L14.3574 38.9116L14.4434 39.1763L14.2188 39.0132L13.9248 38.7993L13.6309 39.0132L13.4053 39.1763L13.4922 38.9116L13.6045 38.5669L13.3105 38.353L13.0859 38.1899H13.7266L13.8389 37.8442L13.9248 37.5796L14.0107 37.8442Z" fill="#D9AE4B" stroke="#AA8636"/>
<path d="M96.0107 11.8442L96.123 12.1899H96.7637L96.5391 12.353L96.2451 12.5669L96.3574 12.9116L96.4434 13.1763L96.2188 13.0132L95.9248 12.7993L95.6309 13.0132L95.4053 13.1763L95.4922 12.9116L95.6045 12.5669L95.3105 12.353L95.0859 12.1899H95.7266L95.8389 11.8442L95.9248 11.5796L96.0107 11.8442Z" fill="#D9AE4B" stroke="#AA8636"/>
</svg>
